<?xml version="1.0" encoding="utf-8" standalone="no"?>
<!DOCTYPE svg PUBLIC "-//W3C//DTD SVG 1.1//EN"
  "http://www.w3.org/Graphics/SVG/1.1/DTD/svg11.dtd">
<!-- Created with matplotlib (https://matplotlib.org/) -->
<svg height="193.625313pt" version="1.1" viewBox="0 0 1159.64375 193.625313" width="1159.64375pt" xmlns="http://www.w3.org/2000/svg" xmlns:xlink="http://www.w3.org/1999/xlink">
 <defs>
  <style type="text/css">
*{stroke-linecap:butt;stroke-linejoin:round;}
  </style>
 </defs>
 <g id="figure_1">
  <g id="patch_1">
   <path d="M 0 193.625313 
L 1159.64375 193.625313 
L 1159.64375 0 
L 0 0 
z
" style="fill:#ffffff;"/>
  </g>
  <g id="axes_1">
   <g id="patch_2">
    <path d="M 36.44375 170.28 
L 567.872321 170.28 
L 567.872321 7.2 
L 36.44375 7.2 
z
" style="fill:#ffffff;"/>
   </g>
   <g id="matplotlib.axis_1">
    <g id="xtick_1">
     <g id="line2d_1">
      <path clip-path="url(#p9466929b56)" d="M 60.599594 170.28 
L 60.599594 7.2 
" style="fill:none;stroke:#cccccc;stroke-linecap:round;stroke-width:0.8;"/>
     </g>
     <g id="text_1">
      <!-- 0 -->
      <defs>
       <path d="M 4.15625 35.296875 
Q 4.15625 48 6.765625 55.734375 
Q 9.375 63.484375 14.515625 67.671875 
Q 19.671875 71.875 27.484375 71.875 
Q 33.25 71.875 37.59375 69.546875 
Q 41.9375 67.234375 44.765625 62.859375 
Q 47.609375 58.5 49.21875 52.21875 
Q 50.828125 45.953125 50.828125 35.296875 
Q 50.828125 22.703125 48.234375 14.96875 
Q 45.65625 7.234375 40.5 3 
Q 35.359375 -1.21875 27.484375 -1.21875 
Q 17.140625 -1.21875 11.234375 6.203125 
Q 4.15625 15.140625 4.15625 35.296875 
z
M 13.1875 35.296875 
Q 13.1875 17.671875 17.3125 11.828125 
Q 21.4375 6 27.484375 6 
Q 33.546875 6 37.671875 11.859375 
Q 41.796875 17.71875 41.796875 35.296875 
Q 41.796875 52.984375 37.671875 58.78125 
Q 33.546875 64.59375 27.390625 64.59375 
Q 21.34375 64.59375 17.71875 59.46875 
Q 13.1875 52.9375 13.1875 35.296875 
z
" id="ArialMT-48"/>
      </defs>
      <g style="fill:#262626;" transform="translate(57.819125 184.437813)scale(0.1 -0.1)">
       <use xlink:href="#ArialMT-48"/>
      </g>
     </g>
    </g>
    <g id="xtick_2">
     <g id="line2d_2">
      <path clip-path="url(#p9466929b56)" d="M 163.609591 170.28 
L 163.609591 7.2 
" style="fill:none;stroke:#cccccc;stroke-linecap:round;stroke-width:0.8;"/>
     </g>
     <g id="text_2">
      <!-- 200 -->
      <defs>
       <path d="M 50.34375 8.453125 
L 50.34375 0 
L 3.03125 0 
Q 2.9375 3.171875 4.046875 6.109375 
Q 5.859375 10.9375 9.828125 15.625 
Q 13.8125 20.3125 21.34375 26.46875 
Q 33.015625 36.03125 37.109375 41.625 
Q 41.21875 47.21875 41.21875 52.203125 
Q 41.21875 57.421875 37.46875 61 
Q 33.734375 64.59375 27.734375 64.59375 
Q 21.390625 64.59375 17.578125 60.78125 
Q 13.765625 56.984375 13.71875 50.25 
L 4.6875 51.171875 
Q 5.609375 61.28125 11.65625 66.578125 
Q 17.71875 71.875 27.9375 71.875 
Q 38.234375 71.875 44.234375 66.15625 
Q 50.25 60.453125 50.25 52 
Q 50.25 47.703125 48.484375 43.546875 
Q 46.734375 39.40625 42.65625 34.8125 
Q 38.578125 30.21875 29.109375 22.21875 
Q 21.1875 15.578125 18.9375 13.203125 
Q 16.703125 10.84375 15.234375 8.453125 
z
" id="ArialMT-50"/>
      </defs>
      <g style="fill:#262626;" transform="translate(155.268184 184.437813)scale(0.1 -0.1)">
       <use xlink:href="#ArialMT-50"/>
       <use x="55.615234" xlink:href="#ArialMT-48"/>
       <use x="111.230469" xlink:href="#ArialMT-48"/>
      </g>
     </g>
    </g>
    <g id="xtick_3">
     <g id="line2d_3">
      <path clip-path="url(#p9466929b56)" d="M 266.619587 170.28 
L 266.619587 7.2 
" style="fill:none;stroke:#cccccc;stroke-linecap:round;stroke-width:0.8;"/>
     </g>
     <g id="text_3">
      <!-- 400 -->
      <defs>
       <path d="M 32.328125 0 
L 32.328125 17.140625 
L 1.265625 17.140625 
L 1.265625 25.203125 
L 33.9375 71.578125 
L 41.109375 71.578125 
L 41.109375 25.203125 
L 50.78125 25.203125 
L 50.78125 17.140625 
L 41.109375 17.140625 
L 41.109375 0 
z
M 32.328125 25.203125 
L 32.328125 57.46875 
L 9.90625 25.203125 
z
" id="ArialMT-52"/>
      </defs>
      <g style="fill:#262626;" transform="translate(258.278181 184.437813)scale(0.1 -0.1)">
       <use xlink:href="#ArialMT-52"/>
       <use x="55.615234" xlink:href="#ArialMT-48"/>
       <use x="111.230469" xlink:href="#ArialMT-48"/>
      </g>
     </g>
    </g>
    <g id="xtick_4">
     <g id="line2d_4">
      <path clip-path="url(#p9466929b56)" d="M 369.629583 170.28 
L 369.629583 7.2 
" style="fill:none;stroke:#cccccc;stroke-linecap:round;stroke-width:0.8;"/>
     </g>
     <g id="text_4">
      <!-- 600 -->
      <defs>
       <path d="M 49.75 54.046875 
L 41.015625 53.375 
Q 39.84375 58.546875 37.703125 60.890625 
Q 34.125 64.65625 28.90625 64.65625 
Q 24.703125 64.65625 21.53125 62.3125 
Q 17.390625 59.28125 14.984375 53.46875 
Q 12.59375 47.65625 12.5 36.921875 
Q 15.671875 41.75 20.265625 44.09375 
Q 24.859375 46.4375 29.890625 46.4375 
Q 38.671875 46.4375 44.84375 39.96875 
Q 51.03125 33.5 51.03125 23.25 
Q 51.03125 16.5 48.125 10.71875 
Q 45.21875 4.9375 40.140625 1.859375 
Q 35.0625 -1.21875 28.609375 -1.21875 
Q 17.625 -1.21875 10.6875 6.859375 
Q 3.765625 14.9375 3.765625 33.5 
Q 3.765625 54.25 11.421875 63.671875 
Q 18.109375 71.875 29.4375 71.875 
Q 37.890625 71.875 43.28125 67.140625 
Q 48.6875 62.40625 49.75 54.046875 
z
M 13.875 23.1875 
Q 13.875 18.65625 15.796875 14.5 
Q 17.71875 10.359375 21.1875 8.171875 
Q 24.65625 6 28.46875 6 
Q 34.03125 6 38.03125 10.484375 
Q 42.046875 14.984375 42.046875 22.703125 
Q 42.046875 30.125 38.078125 34.390625 
Q 34.125 38.671875 28.125 38.671875 
Q 22.171875 38.671875 18.015625 34.390625 
Q 13.875 30.125 13.875 23.1875 
z
" id="ArialMT-54"/>
      </defs>
      <g style="fill:#262626;" transform="translate(361.288177 184.437813)scale(0.1 -0.1)">
       <use xlink:href="#ArialMT-54"/>
       <use x="55.615234" xlink:href="#ArialMT-48"/>
       <use x="111.230469" xlink:href="#ArialMT-48"/>
      </g>
     </g>
    </g>
    <g id="xtick_5">
     <g id="line2d_5">
      <path clip-path="url(#p9466929b56)" d="M 472.63958 170.28 
L 472.63958 7.2 
" style="fill:none;stroke:#cccccc;stroke-linecap:round;stroke-width:0.8;"/>
     </g>
     <g id="text_5">
      <!-- 800 -->
      <defs>
       <path d="M 17.671875 38.8125 
Q 12.203125 40.828125 9.5625 44.53125 
Q 6.9375 48.25 6.9375 53.421875 
Q 6.9375 61.234375 12.546875 66.546875 
Q 18.171875 71.875 27.484375 71.875 
Q 36.859375 71.875 42.578125 66.421875 
Q 48.296875 60.984375 48.296875 53.171875 
Q 48.296875 48.1875 45.671875 44.5 
Q 43.0625 40.828125 37.75 38.8125 
Q 44.34375 36.671875 47.78125 31.875 
Q 51.21875 27.09375 51.21875 20.453125 
Q 51.21875 11.28125 44.71875 5.03125 
Q 38.234375 -1.21875 27.640625 -1.21875 
Q 17.046875 -1.21875 10.546875 5.046875 
Q 4.046875 11.328125 4.046875 20.703125 
Q 4.046875 27.6875 7.59375 32.390625 
Q 11.140625 37.109375 17.671875 38.8125 
z
M 15.921875 53.71875 
Q 15.921875 48.640625 19.1875 45.40625 
Q 22.46875 42.1875 27.6875 42.1875 
Q 32.765625 42.1875 36.015625 45.375 
Q 39.265625 48.578125 39.265625 53.21875 
Q 39.265625 58.0625 35.90625 61.359375 
Q 32.5625 64.65625 27.59375 64.65625 
Q 22.5625 64.65625 19.234375 61.421875 
Q 15.921875 58.203125 15.921875 53.71875 
z
M 13.09375 20.65625 
Q 13.09375 16.890625 14.875 13.375 
Q 16.65625 9.859375 20.171875 7.921875 
Q 23.6875 6 27.734375 6 
Q 34.03125 6 38.125 10.046875 
Q 42.234375 14.109375 42.234375 20.359375 
Q 42.234375 26.703125 38.015625 30.859375 
Q 33.796875 35.015625 27.4375 35.015625 
Q 21.234375 35.015625 17.15625 30.90625 
Q 13.09375 26.8125 13.09375 20.65625 
z
" id="ArialMT-56"/>
      </defs>
      <g style="fill:#262626;" transform="translate(464.298174 184.437813)scale(0.1 -0.1)">
       <use xlink:href="#ArialMT-56"/>
       <use x="55.615234" xlink:href="#ArialMT-48"/>
       <use x="111.230469" xlink:href="#ArialMT-48"/>
      </g>
     </g>
    </g>
   </g>
   <g id="matplotlib.axis_2">
    <g id="ytick_1">
     <g id="line2d_6">
      <path clip-path="url(#p9466929b56)" d="M 36.44375 162.867273 
L 567.872321 162.867273 
" style="fill:none;stroke:#cccccc;stroke-linecap:round;stroke-width:0.8;"/>
     </g>
     <g id="text_6">
      <!-- 0 -->
      <g style="fill:#262626;" transform="translate(23.882813 166.446179)scale(0.1 -0.1)">
       <use xlink:href="#ArialMT-48"/>
      </g>
     </g>
    </g>
    <g id="ytick_2">
     <g id="line2d_7">
      <path clip-path="url(#p9466929b56)" d="M 36.44375 122.796254 
L 567.872321 122.796254 
" style="fill:none;stroke:#cccccc;stroke-linecap:round;stroke-width:0.8;"/>
     </g>
     <g id="text_7">
      <!-- 2000 -->
      <g style="fill:#262626;" transform="translate(7.2 126.375161)scale(0.1 -0.1)">
       <use xlink:href="#ArialMT-50"/>
       <use x="55.615234" xlink:href="#ArialMT-48"/>
       <use x="111.230469" xlink:href="#ArialMT-48"/>
       <use x="166.845703" xlink:href="#ArialMT-48"/>
      </g>
     </g>
    </g>
    <g id="ytick_3">
     <g id="line2d_8">
      <path clip-path="url(#p9466929b56)" d="M 36.44375 82.725236 
L 567.872321 82.725236 
" style="fill:none;stroke:#cccccc;stroke-linecap:round;stroke-width:0.8;"/>
     </g>
     <g id="text_8">
      <!-- 4000 -->
      <g style="fill:#262626;" transform="translate(7.2 86.304142)scale(0.1 -0.1)">
       <use xlink:href="#ArialMT-52"/>
       <use x="55.615234" xlink:href="#ArialMT-48"/>
       <use x="111.230469" xlink:href="#ArialMT-48"/>
       <use x="166.845703" xlink:href="#ArialMT-48"/>
      </g>
     </g>
    </g>
    <g id="ytick_4">
     <g id="line2d_9">
      <path clip-path="url(#p9466929b56)" d="M 36.44375 42.654218 
L 567.872321 42.654218 
" style="fill:none;stroke:#cccccc;stroke-linecap:round;stroke-width:0.8;"/>
     </g>
     <g id="text_9">
      <!-- 6000 -->
      <g style="fill:#262626;" transform="translate(7.2 46.233124)scale(0.1 -0.1)">
       <use xlink:href="#ArialMT-54"/>
       <use x="55.615234" xlink:href="#ArialMT-48"/>
       <use x="111.230469" xlink:href="#ArialMT-48"/>
       <use x="166.845703" xlink:href="#ArialMT-48"/>
      </g>
     </g>
    </g>
   </g>
   <g id="line2d_10">
    <path clip-path="url(#p9466929b56)" d="M 60.599594 157.088454 
L 61.114644 162.857922 
L 61.629694 162.421005 
L 62.144744 162.433472 
L 62.659794 162.840922 
L 64.204944 162.844322 
L 66.265144 162.863306 
L 69.870494 162.759885 
L 70.385544 162.520175 
L 70.900594 162.827888 
L 75.536044 162.834121 
L 76.051094 162.683665 
L 77.081194 162.78992 
L 77.596244 162.861039 
L 79.141394 162.793036 
L 83.776843 162.781136 
L 84.291893 162.544543 
L 84.806943 162.866989 
L 86.867143 162.757618 
L 87.382193 162.638613 
L 88.412293 162.766969 
L 88.927343 158.603216 
L 89.442393 156.820126 
L 89.957443 161.934218 
L 90.472493 162.677432 
L 91.502593 162.671481 
L 92.017643 162.661848 
L 93.047743 162.769802 
L 94.592893 162.80097 
L 98.198243 162.861606 
L 98.713293 158.469477 
L 99.228343 161.495883 
L 99.743393 162.662981 
L 101.803593 162.62898 
L 102.318643 162.747134 
L 102.833693 162.371136 
L 103.348743 162.836955 
L 103.863793 162.677998 
L 104.378843 162.831855 
L 105.408943 162.764985 
L 110.044392 162.710016 
L 111.074492 162.731551 
L 115.709942 162.632947 
L 117.255092 162.691882 
L 118.285192 162.594412 
L 118.800242 162.698683 
L 119.830342 162.705766 
L 122.405592 162.63068 
L 125.495892 162.620763 
L 126.525992 162.63493 
L 127.556092 162.733251 
L 129.616292 162.783686 
L 130.131342 162.694149 
L 130.646392 162.771502 
L 131.161442 162.687065 
L 131.676492 162.778869 
L 132.191542 162.674598 
L 132.706592 162.797287 
L 133.221642 162.731834 
L 133.736692 162.279049 
L 134.251742 162.707183 
L 135.281842 162.843755 
L 136.826991 162.732967 
L 138.887191 162.831571 
L 139.917291 162.598378 
L 140.432341 162.854239 
L 141.462441 162.782269 
L 141.977491 162.851122 
L 144.037691 162.655047 
L 144.552741 162.092891 
L 145.067791 160.570762 
L 145.582841 161.822297 
L 146.097891 162.729567 
L 147.643041 162.824488 
L 148.158091 162.779719 
L 148.673141 162.857922 
L 151.248391 162.748835 
L 151.763441 161.255607 
L 152.278491 162.831571 
L 154.853741 162.829305 
L 156.913941 162.744301 
L 157.428991 162.059173 
L 157.944041 161.945835 
L 158.459091 162.754501 
L 161.034341 162.832705 
L 161.549391 162.727017 
L 162.064441 162.862456 
L 162.579491 161.379145 
L 163.094541 162.756768 
L 163.609591 162.660998 
L 164.639691 162.706049 
L 167.21494 162.707466 
L 168.76009 162.835255 
L 169.79019 162.829588 
L 171.33534 162.854806 
L 173.39554 162.822788 
L 179.06109 162.857072 
L 179.57614 161.348827 
L 180.09119 151.287165 
L 180.60624 159.191241 
L 181.12129 146.099772 
L 181.63634 162.70775 
L 182.15139 162.799837 
L 182.66644 162.753368 
L 183.18149 162.837522 
L 184.21159 162.816837 
L 186.78684 162.784536 
L 188.33199 162.78907 
L 189.87714 162.740901 
L 190.39219 162.836671 
L 190.90724 162.731267 
L 192.45239 162.851122 
L 193.997539 162.864723 
L 197.602889 162.814571 
L 199.148039 162.831571 
L 200.178139 162.859056 
L 200.693189 162.79162 
L 201.723289 162.853389 
L 202.753389 162.857639 
L 203.783489 162.834971 
L 204.298539 161.270341 
L 205.328639 162.843472 
L 206.358739 162.715117 
L 208.933989 162.855089 
L 209.449039 161.222739 
L 209.964089 162.788503 
L 210.994189 162.826188 
L 213.569439 162.803237 
L 215.114589 162.833838 
L 217.689839 162.817121 
L 220.265089 162.866989 
L 220.780139 161.725109 
L 221.295189 162.864156 
L 222.325289 162.855656 
L 224.900538 162.750535 
L 227.990838 162.748268 
L 229.020938 162.714833 
L 232.111238 162.821088 
L 233.656388 162.673465 
L 234.686488 162.625013 
L 235.201538 160.633665 
L 235.716588 162.587045 
L 236.231638 162.681115 
L 237.261738 162.487591 
L 237.776788 162.500624 
L 238.291838 162.787936 
L 238.806888 156.625185 
L 239.321938 156.61473 
L 239.836988 157.826024 
L 240.352038 160.20992 
L 240.867088 161.968127 
L 241.897188 162.204529 
L 242.412238 81.359999 
L 242.927288 92.872869 
L 243.442338 152.421763 
L 243.957388 156.1894 
L 244.472438 154.141384 
L 244.987488 14.612727 
L 245.502538 24.5706 
L 246.017588 162.562677 
L 246.532638 162.583644 
L 247.047688 116.394461 
L 247.562738 87.91065 
L 248.077788 135.127525 
L 248.592838 126.849037 
L 249.107888 105.143119 
L 250.137988 162.541709 
L 251.168087 162.500341 
L 251.683137 162.606879 
L 254.258387 162.554177 
L 254.773437 162.674315 
L 260.438987 162.652497 
L 260.954037 162.534342 
L 261.469087 161.211405 
L 261.984137 162.826471 
L 262.499187 162.681398 
L 263.529287 162.836105 
L 264.044337 159.891868 
L 265.074437 162.855939 
L 266.104537 162.576561 
L 266.619587 162.557293 
L 267.134637 162.660998 
L 267.649687 162.540859 
L 269.194837 162.680832 
L 270.739987 162.676865 
L 271.255037 162.747134 
L 271.770087 162.597528 
L 272.285137 161.779725 
L 272.800187 161.632669 
L 273.315237 157.209159 
L 273.830287 162.63663 
L 274.345337 162.828738 
L 276.405537 162.840072 
L 277.435637 162.817687 
L 278.980787 162.863023 
L 280.010886 162.850555 
L 281.556036 162.847722 
L 282.071086 162.139076 
L 282.586136 162.840922 
L 284.131286 162.816554 
L 285.676436 162.761018 
L 287.736636 162.850839 
L 289.281786 162.849989 
L 289.796836 162.117825 
L 290.311886 162.844038 
L 309.368735 162.782553 
L 310.398835 162.755635 
L 312.459035 162.79247 
L 312.974085 162.739768 
L 313.489135 162.817121 
L 315.549335 162.770369 
L 319.154685 162.819671 
L 319.669735 161.197805 
L 320.184785 161.430431 
L 320.699835 162.765835 
L 322.244985 162.80182 
L 326.365385 162.801537 
L 326.880435 160.277784 
L 327.395485 162.780853 
L 329.455685 162.745151 
L 329.970735 162.62473 
L 331.515885 162.833555 
L 332.030935 160.293934 
L 332.545985 162.833838 
L 334.091135 162.749968 
L 335.121235 162.833271 
L 335.636285 156.616685 
L 336.151335 162.014121 
L 336.666385 162.707466 
L 337.696484 162.790486 
L 338.726584 162.749968 
L 339.241634 162.818537 
L 339.756684 160.250299 
L 340.271734 161.142269 
L 340.786784 162.62643 
L 341.301834 162.797853 
L 342.331934 162.810604 
L 342.846984 162.30795 
L 343.362034 160.561129 
L 343.877084 162.760168 
L 344.392134 162.830155 
L 344.907184 162.763002 
L 345.422234 162.859622 
L 346.452334 162.738351 
L 347.482434 162.778019 
L 349.027584 162.759035 
L 349.542634 151.700507 
L 350.057684 154.899475 
L 350.572734 155.838619 
L 351.087784 161.364411 
L 351.602834 162.682249 
L 353.147984 162.700099 
L 353.663034 162.801253 
L 354.693134 162.771786 
L 355.208184 162.744868 
L 356.238284 158.492711 
L 356.753334 162.250148 
L 357.268384 162.47654 
L 357.783434 150.368646 
L 358.298484 149.765688 
L 358.813534 162.676582 
L 359.328584 162.727867 
L 359.843634 160.372988 
L 360.358684 155.422669 
L 360.873734 160.848157 
L 361.388784 162.78907 
L 363.964034 162.854522 
L 364.994134 162.743734 
L 365.509184 162.808337 
L 366.539283 162.7307 
L 368.599483 162.739484 
L 370.659683 162.852539 
L 371.689783 162.858206 
L 372.204833 162.386436 
L 372.719883 162.538593 
L 373.234933 162.858772 
L 374.780083 162.805504 
L 378.385433 162.679415 
L 385.081083 162.712283 
L 385.596133 160.341253 
L 386.111183 162.102808 
L 386.626233 162.769802 
L 387.656333 162.861889 
L 388.686433 162.80607 
L 389.201483 162.864439 
L 390.231583 162.729 
L 390.746633 158.836975 
L 391.776733 162.837522 
L 392.291783 162.70775 
L 393.836933 162.691316 
L 394.351982 162.680832 
L 394.867032 161.125268 
L 395.382082 162.777169 
L 396.927232 162.702649 
L 397.442282 162.696982 
L 397.957332 161.854881 
L 398.472382 158.427542 
L 398.987432 161.536685 
L 399.502482 162.836105 
L 400.017532 162.704633 
L 400.532582 162.742884 
L 401.047632 162.615946 
L 404.137932 162.766119 
L 405.168032 162.817121 
L 407.228232 162.670915 
L 408.258332 162.71115 
L 408.773382 162.581094 
L 410.318532 162.778586 
L 410.833582 162.7154 
L 412.378732 162.827321 
L 413.923882 162.793036 
L 414.438932 162.096291 
L 415.469032 162.850839 
L 421.134582 162.853389 
L 422.164682 162.107058 
L 422.679732 162.761018 
L 423.709831 162.804654 
L 425.254981 162.850555 
L 429.890431 162.848572 
L 430.405481 162.107058 
L 430.920531 162.815987 
L 432.980731 162.861606 
L 435.040931 162.820804 
L 436.586081 162.861606 
L 437.616181 162.846872 
L 438.131231 162.369152 
L 438.646281 162.490424 
L 439.161331 162.774336 
L 440.191431 162.850272 
L 442.766681 162.841205 
L 447.402131 162.846305 
L 450.492431 162.849705 
L 455.12788 162.822504 
L 455.64293 162.808337 
L 456.15798 162.583644 
L 456.67303 160.368454 
L 457.18808 162.662414 
L 457.70313 162.850555 
L 458.21818 162.785669 
L 459.76333 162.843755 
L 461.82353 162.822221 
L 462.33858 162.431772 
L 462.85363 162.745434 
L 463.88373 162.768952 
L 465.94393 162.861322 
L 466.97403 162.784819 
L 467.48908 162.64428 
L 468.00413 162.787369 
L 470.06433 162.840355 
L 471.60948 162.800687 
L 472.63958 162.808054 
L 473.15463 162.587328 
L 473.66968 162.859056 
L 478.30513 162.756485 
L 479.85028 162.687632 
L 480.365329 162.79077 
L 480.880379 162.689899 
L 481.395429 162.764702 
L 481.910479 159.373347 
L 482.425529 148.918771 
L 482.940579 157.577224 
L 483.455629 159.434266 
L 484.485729 161.248523 
L 485.000779 160.329069 
L 485.515829 162.619629 
L 486.030879 162.265732 
L 486.545929 161.58457 
L 487.576029 162.510825 
L 488.091079 161.989754 
L 488.606129 155.296297 
L 489.121179 153.788052 
L 489.636229 162.351302 
L 490.151279 160.19363 
L 490.666329 161.4956 
L 491.181379 148.914804 
L 491.696429 150.233774 
L 492.211479 162.282166 
L 492.726529 162.306817 
L 493.241579 153.730817 
L 493.756629 152.854148 
L 494.271679 161.580604 
L 494.786729 158.419608 
L 495.301779 159.976872 
L 495.816829 162.487874 
L 496.331879 162.135393 
L 496.846929 162.333451 
L 497.361979 162.262331 
L 498.392079 162.372553 
L 498.907129 162.216146 
L 499.422179 162.286982 
L 499.937229 162.64683 
L 500.452279 158.320154 
L 500.967329 162.091758 
L 501.482379 162.356685 
L 501.997429 162.269698 
L 502.512479 162.381903 
L 503.027529 162.262048 
L 503.542579 162.46804 
L 504.057629 107.328841 
L 504.572679 106.379636 
L 505.087729 162.329201 
L 505.602779 162.465206 
L 506.117829 160.861191 
L 506.632879 162.215296 
L 507.147929 162.613679 
L 507.662979 162.504875 
L 508.178029 162.598095 
L 508.693078 162.188662 
L 509.208128 132.935432 
L 509.723178 146.351236 
L 510.238228 132.610572 
L 510.753278 162.264031 
L 511.268328 162.78992 
L 513.328528 162.846872 
L 513.843578 162.80777 
L 514.358628 162.405704 
L 515.388728 162.771502 
L 517.963978 162.822221 
L 518.479028 162.758752 
L 519.509128 162.784819 
L 528.264978 162.797003 
L 529.810128 162.851972 
L 530.840228 162.816554 
L 532.900428 162.819104 
L 534.960628 162.823638 
L 537.535877 162.831005 
L 538.050927 161.915801 
L 538.565977 162.791053 
L 541.656277 162.853956 
L 543.201427 162.859906 
L 543.716477 162.840072 
L 543.716477 162.840072 
" style="fill:none;stroke:#e7298a;stroke-linecap:round;stroke-width:4;"/>
   </g>
   <g id="patch_3">
    <path d="M 36.44375 170.28 
L 36.44375 7.2 
" style="fill:none;stroke:#cccccc;stroke-linecap:square;stroke-linejoin:miter;stroke-width:0.8;"/>
   </g>
   <g id="patch_4">
    <path d="M 567.872321 170.28 
L 567.872321 7.2 
" style="fill:none;stroke:#cccccc;stroke-linecap:square;stroke-linejoin:miter;stroke-width:0.8;"/>
   </g>
   <g id="patch_5">
    <path d="M 36.44375 170.28 
L 567.872321 170.28 
" style="fill:none;stroke:#cccccc;stroke-linecap:square;stroke-linejoin:miter;stroke-width:0.8;"/>
   </g>
   <g id="patch_6">
    <path d="M 36.44375 7.2 
L 567.872321 7.2 
" style="fill:none;stroke:#cccccc;stroke-linecap:square;stroke-linejoin:miter;stroke-width:0.8;"/>
   </g>
  </g>
  <g id="axes_2">
   <g id="patch_7">
    <path d="M 621.015179 170.28 
L 1152.44375 170.28 
L 1152.44375 7.2 
L 621.015179 7.2 
z
" style="fill:#ffffff;"/>
   </g>
   <g id="matplotlib.axis_3">
    <g id="xtick_6">
     <g id="line2d_11">
      <path clip-path="url(#pb5c70f62aa)" d="M 645.171023 170.28 
L 645.171023 7.2 
" style="fill:none;stroke:#cccccc;stroke-linecap:round;stroke-width:0.8;"/>
     </g>
     <g id="text_10">
      <!-- 0 -->
      <g style="fill:#262626;" transform="translate(642.390554 184.437813)scale(0.1 -0.1)">
       <use xlink:href="#ArialMT-48"/>
      </g>
     </g>
    </g>
    <g id="xtick_7">
     <g id="line2d_12">
      <path clip-path="url(#pb5c70f62aa)" d="M 748.181019 170.28 
L 748.181019 7.2 
" style="fill:none;stroke:#cccccc;stroke-linecap:round;stroke-width:0.8;"/>
     </g>
     <g id="text_11">
      <!-- 200 -->
      <g style="fill:#262626;" transform="translate(739.839613 184.437813)scale(0.1 -0.1)">
       <use xlink:href="#ArialMT-50"/>
       <use x="55.615234" xlink:href="#ArialMT-48"/>
       <use x="111.230469" xlink:href="#ArialMT-48"/>
      </g>
     </g>
    </g>
    <g id="xtick_8">
     <g id="line2d_13">
      <path clip-path="url(#pb5c70f62aa)" d="M 851.191016 170.28 
L 851.191016 7.2 
" style="fill:none;stroke:#cccccc;stroke-linecap:round;stroke-width:0.8;"/>
     </g>
     <g id="text_12">
      <!-- 400 -->
      <g style="fill:#262626;" transform="translate(842.849609 184.437813)scale(0.1 -0.1)">
       <use xlink:href="#ArialMT-52"/>
       <use x="55.615234" xlink:href="#ArialMT-48"/>
       <use x="111.230469" xlink:href="#ArialMT-48"/>
      </g>
     </g>
    </g>
    <g id="xtick_9">
     <g id="line2d_14">
      <path clip-path="url(#pb5c70f62aa)" d="M 954.201012 170.28 
L 954.201012 7.2 
" style="fill:none;stroke:#cccccc;stroke-linecap:round;stroke-width:0.8;"/>
     </g>
     <g id="text_13">
      <!-- 600 -->
      <g style="fill:#262626;" transform="translate(945.859606 184.437813)scale(0.1 -0.1)">
       <use xlink:href="#ArialMT-54"/>
       <use x="55.615234" xlink:href="#ArialMT-48"/>
       <use x="111.230469" xlink:href="#ArialMT-48"/>
      </g>
     </g>
    </g>
    <g id="xtick_10">
     <g id="line2d_15">
      <path clip-path="url(#pb5c70f62aa)" d="M 1057.211008 170.28 
L 1057.211008 7.2 
" style="fill:none;stroke:#cccccc;stroke-linecap:round;stroke-width:0.8;"/>
     </g>
     <g id="text_14">
      <!-- 800 -->
      <g style="fill:#262626;" transform="translate(1048.869602 184.437813)scale(0.1 -0.1)">
       <use xlink:href="#ArialMT-56"/>
       <use x="55.615234" xlink:href="#ArialMT-48"/>
       <use x="111.230469" xlink:href="#ArialMT-48"/>
      </g>
     </g>
    </g>
   </g>
   <g id="matplotlib.axis_4">
    <g id="ytick_5">
     <g id="line2d_16">
      <path clip-path="url(#pb5c70f62aa)" d="M 621.015179 164.125533 
L 1152.44375 164.125533 
" style="fill:none;stroke:#cccccc;stroke-linecap:round;stroke-width:0.8;"/>
     </g>
     <g id="text_15">
      <!-- −20000 -->
      <defs>
       <path d="M 52.828125 31.203125 
L 5.5625 31.203125 
L 5.5625 39.40625 
L 52.828125 39.40625 
z
" id="ArialMT-8722"/>
      </defs>
      <g style="fill:#262626;" transform="translate(580.369866 167.704439)scale(0.1 -0.1)">
       <use xlink:href="#ArialMT-8722"/>
       <use x="58.398438" xlink:href="#ArialMT-50"/>
       <use x="114.013672" xlink:href="#ArialMT-48"/>
       <use x="169.628906" xlink:href="#ArialMT-48"/>
       <use x="225.244141" xlink:href="#ArialMT-48"/>
       <use x="280.859375" xlink:href="#ArialMT-48"/>
      </g>
     </g>
    </g>
    <g id="ytick_6">
     <g id="line2d_17">
      <path clip-path="url(#pb5c70f62aa)" d="M 621.015179 143.60689 
L 1152.44375 143.60689 
" style="fill:none;stroke:#cccccc;stroke-linecap:round;stroke-width:0.8;"/>
     </g>
     <g id="text_16">
      <!-- −15000 -->
      <defs>
       <path d="M 37.25 0 
L 28.46875 0 
L 28.46875 56 
Q 25.296875 52.984375 20.140625 49.953125 
Q 14.984375 46.921875 10.890625 45.40625 
L 10.890625 53.90625 
Q 18.265625 57.375 23.78125 62.296875 
Q 29.296875 67.234375 31.59375 71.875 
L 37.25 71.875 
z
" id="ArialMT-49"/>
       <path d="M 4.15625 18.75 
L 13.375 19.53125 
Q 14.40625 12.796875 18.140625 9.390625 
Q 21.875 6 27.15625 6 
Q 33.5 6 37.890625 10.78125 
Q 42.28125 15.578125 42.28125 23.484375 
Q 42.28125 31 38.0625 35.34375 
Q 33.84375 39.703125 27 39.703125 
Q 22.75 39.703125 19.328125 37.765625 
Q 15.921875 35.84375 13.96875 32.765625 
L 5.71875 33.84375 
L 12.640625 70.609375 
L 48.25 70.609375 
L 48.25 62.203125 
L 19.671875 62.203125 
L 15.828125 42.96875 
Q 22.265625 47.46875 29.34375 47.46875 
Q 38.71875 47.46875 45.15625 40.96875 
Q 51.609375 34.46875 51.609375 24.265625 
Q 51.609375 14.546875 45.953125 7.46875 
Q 39.0625 -1.21875 27.15625 -1.21875 
Q 17.390625 -1.21875 11.203125 4.25 
Q 5.03125 9.71875 4.15625 18.75 
z
" id="ArialMT-53"/>
      </defs>
      <g style="fill:#262626;" transform="translate(580.369866 147.185797)scale(0.1 -0.1)">
       <use xlink:href="#ArialMT-8722"/>
       <use x="58.398438" xlink:href="#ArialMT-49"/>
       <use x="114.013672" xlink:href="#ArialMT-53"/>
       <use x="169.628906" xlink:href="#ArialMT-48"/>
       <use x="225.244141" xlink:href="#ArialMT-48"/>
       <use x="280.859375" xlink:href="#ArialMT-48"/>
      </g>
     </g>
    </g>
    <g id="ytick_7">
     <g id="line2d_18">
      <path clip-path="url(#pb5c70f62aa)" d="M 621.015179 123.088247 
L 1152.44375 123.088247 
" style="fill:none;stroke:#cccccc;stroke-linecap:round;stroke-width:0.8;"/>
     </g>
     <g id="text_17">
      <!-- −10000 -->
      <g style="fill:#262626;" transform="translate(580.369866 126.667154)scale(0.1 -0.1)">
       <use xlink:href="#ArialMT-8722"/>
       <use x="58.398438" xlink:href="#ArialMT-49"/>
       <use x="114.013672" xlink:href="#ArialMT-48"/>
       <use x="169.628906" xlink:href="#ArialMT-48"/>
       <use x="225.244141" xlink:href="#ArialMT-48"/>
       <use x="280.859375" xlink:href="#ArialMT-48"/>
      </g>
     </g>
    </g>
    <g id="ytick_8">
     <g id="line2d_19">
      <path clip-path="url(#pb5c70f62aa)" d="M 621.015179 102.569604 
L 1152.44375 102.569604 
" style="fill:none;stroke:#cccccc;stroke-linecap:round;stroke-width:0.8;"/>
     </g>
     <g id="text_18">
      <!-- −5000 -->
      <g style="fill:#262626;" transform="translate(585.930804 106.148511)scale(0.1 -0.1)">
       <use xlink:href="#ArialMT-8722"/>
       <use x="58.398438" xlink:href="#ArialMT-53"/>
       <use x="114.013672" xlink:href="#ArialMT-48"/>
       <use x="169.628906" xlink:href="#ArialMT-48"/>
       <use x="225.244141" xlink:href="#ArialMT-48"/>
      </g>
     </g>
    </g>
    <g id="ytick_9">
     <g id="line2d_20">
      <path clip-path="url(#pb5c70f62aa)" d="M 621.015179 82.050961 
L 1152.44375 82.050961 
" style="fill:none;stroke:#cccccc;stroke-linecap:round;stroke-width:0.8;"/>
     </g>
     <g id="text_19">
      <!-- 0 -->
      <g style="fill:#262626;" transform="translate(608.454241 85.629868)scale(0.1 -0.1)">
       <use xlink:href="#ArialMT-48"/>
      </g>
     </g>
    </g>
    <g id="ytick_10">
     <g id="line2d_21">
      <path clip-path="url(#pb5c70f62aa)" d="M 621.015179 61.532319 
L 1152.44375 61.532319 
" style="fill:none;stroke:#cccccc;stroke-linecap:round;stroke-width:0.8;"/>
     </g>
     <g id="text_20">
      <!-- 5000 -->
      <g style="fill:#262626;" transform="translate(591.771429 65.111225)scale(0.1 -0.1)">
       <use xlink:href="#ArialMT-53"/>
       <use x="55.615234" xlink:href="#ArialMT-48"/>
       <use x="111.230469" xlink:href="#ArialMT-48"/>
       <use x="166.845703" xlink:href="#ArialMT-48"/>
      </g>
     </g>
    </g>
    <g id="ytick_11">
     <g id="line2d_22">
      <path clip-path="url(#pb5c70f62aa)" d="M 621.015179 41.013676 
L 1152.44375 41.013676 
" style="fill:none;stroke:#cccccc;stroke-linecap:round;stroke-width:0.8;"/>
     </g>
     <g id="text_21">
      <!-- 10000 -->
      <g style="fill:#262626;" transform="translate(586.210491 44.592582)scale(0.1 -0.1)">
       <use xlink:href="#ArialMT-49"/>
       <use x="55.615234" xlink:href="#ArialMT-48"/>
       <use x="111.230469" xlink:href="#ArialMT-48"/>
       <use x="166.845703" xlink:href="#ArialMT-48"/>
       <use x="222.460938" xlink:href="#ArialMT-48"/>
      </g>
     </g>
    </g>
    <g id="ytick_12">
     <g id="line2d_23">
      <path clip-path="url(#pb5c70f62aa)" d="M 621.015179 20.495033 
L 1152.44375 20.495033 
" style="fill:none;stroke:#cccccc;stroke-linecap:round;stroke-width:0.8;"/>
     </g>
     <g id="text_22">
      <!-- 15000 -->
      <g style="fill:#262626;" transform="translate(586.210491 24.073939)scale(0.1 -0.1)">
       <use xlink:href="#ArialMT-49"/>
       <use x="55.615234" xlink:href="#ArialMT-53"/>
       <use x="111.230469" xlink:href="#ArialMT-48"/>
       <use x="166.845703" xlink:href="#ArialMT-48"/>
       <use x="222.460938" xlink:href="#ArialMT-48"/>
      </g>
     </g>
    </g>
   </g>
   <g id="line2d_24">
    <path clip-path="url(#pb5c70f62aa)" d="M 645.171023 81.163767 
L 646.201123 81.663325 
L 647.231223 82.161954 
L 653.926872 85.899304 
L 662.167672 90.407638 
L 672.983722 96.268401 
L 673.498772 95.691465 
L 674.013822 94.749311 
L 674.528872 94.854639 
L 679.679372 97.529145 
L 682.769671 99.27354 
L 683.284721 98.669211 
L 683.799771 98.684758 
L 695.645921 104.659956 
L 700.796421 107.191811 
L 713.67267 113.591816 
L 717.79307 115.754577 
L 718.82317 116.194184 
L 728.09407 121.227147 
L 729.12417 121.617946 
L 729.63922 121.444008 
L 730.15427 121.526412 
L 734.78972 124.065644 
L 735.81982 124.616795 
L 736.33487 124.583128 
L 741.485369 127.432147 
L 742.515469 127.670777 
L 746.635869 129.934172 
L 747.150919 129.925809 
L 760.027169 136.888004 
L 763.632519 138.88299 
L 764.147569 138.868417 
L 764.662619 136.792987 
L 765.177669 136.336491 
L 765.692719 133.198565 
L 769.298068 135.153333 
L 782.689368 142.557114 
L 788.354918 145.758344 
L 788.869968 145.727695 
L 789.385018 145.857921 
L 793.505418 148.075235 
L 794.020468 148.034837 
L 817.712767 160.810612 
L 819.257917 161.57556 
L 819.772967 161.414506 
L 822.863267 162.867273 
L 823.893366 160.900966 
L 824.408416 160.164843 
L 824.923466 159.916996 
L 826.468616 160.337194 
L 827.498716 129.899079 
L 828.013766 128.05604 
L 828.528816 126.984699 
L 829.043866 125.493878 
L 830.073966 67.39454 
L 831.104066 67.866937 
L 831.619116 58.644687 
L 832.134166 43.588302 
L 832.649216 38.203009 
L 833.164266 31.122094 
L 833.679316 19.595312 
L 834.194366 14.612727 
L 840.374966 17.482047 
L 845.525466 19.964281 
L 846.040516 19.921561 
L 848.100716 21.042145 
L 848.615766 20.729153 
L 849.130816 20.723982 
L 850.675966 21.51197 
L 854.796365 23.487277 
L 856.341515 24.257738 
L 857.371615 24.374987 
L 857.886665 23.512516 
L 859.946865 24.628108 
L 866.127465 28.120671 
L 866.642515 28.267959 
L 873.853215 32.271106 
L 874.368265 32.414041 
L 894.455214 43.668632 
L 903.726114 48.711693 
L 904.756214 48.668329 
L 910.936813 52.087128 
L 911.451863 51.853181 
L 916.087313 54.284699 
L 916.602363 54.05406 
L 919.692663 55.747326 
L 920.207713 54.763502 
L 920.722763 54.885197 
L 923.813063 56.539985 
L 924.328113 56.300409 
L 924.843163 56.243528 
L 927.418413 57.522775 
L 927.933463 57.346863 
L 933.599013 60.423259 
L 934.114063 58.43249 
L 935.144163 55.953754 
L 935.659213 55.942373 
L 939.779612 58.072925 
L 940.294662 57.947678 
L 940.809712 57.348108 
L 941.839812 57.734554 
L 942.869912 53.083927 
L 943.900012 53.609194 
L 944.415062 53.394747 
L 944.930112 52.166362 
L 945.445162 52.04924 
L 956.776262 58.14005 
L 958.321412 58.947771 
L 963.986962 61.897765 
L 968.107361 64.003071 
L 969.652511 64.79518 
L 970.167561 64.574233 
L 970.682611 64.714092 
L 974.803011 66.991416 
L 975.318061 66.462358 
L 975.833111 66.342161 
L 978.408361 67.688903 
L 978.923411 67.947155 
L 979.438461 67.886792 
L 982.013711 69.250364 
L 982.528761 69.339442 
L 983.043811 68.726524 
L 983.558861 68.750428 
L 985.619061 69.819534 
L 988.709361 71.402127 
L 992.314711 73.318243 
L 1003.64581 79.254504 
L 1006.22106 80.642103 
L 1006.73611 80.782833 
L 1011.37156 83.370408 
L 1022.18761 89.358443 
L 1023.732759 90.049512 
L 1040.729409 99.59981 
L 1041.244459 99.384435 
L 1043.304659 100.502174 
L 1057.211008 108.124105 
L 1058.756158 108.952196 
L 1064.421708 112.054766 
L 1065.966858 112.871075 
L 1066.481908 112.451879 
L 1066.996958 109.891347 
L 1067.512008 109.104264 
L 1068.027058 108.697545 
L 1068.542108 108.466906 
L 1069.057158 108.431789 
L 1069.572208 108.208347 
L 1070.602308 108.627293 
L 1071.632408 108.790245 
L 1072.662508 109.130379 
L 1073.177558 107.87611 
L 1073.692608 106.312918 
L 1074.207658 106.503675 
L 1074.722708 106.252491 
L 1075.237758 106.267981 
L 1076.267858 101.415448 
L 1077.297958 101.773689 
L 1078.328058 98.444298 
L 1078.843108 98.477198 
L 1079.358158 97.862654 
L 1079.873208 97.567073 
L 1081.418357 98.119437 
L 1084.508657 99.270942 
L 1085.023707 98.636028 
L 1086.568857 99.139526 
L 1088.114007 99.723693 
L 1089.144107 77.371082 
L 1090.174207 77.771399 
L 1090.689257 77.656947 
L 1091.719357 78.064344 
L 1093.264507 78.685306 
L 1093.779557 72.851023 
L 1094.294607 69.764602 
L 1094.809657 63.86378 
L 1095.839757 64.317257 
L 1099.445107 66.208766 
L 1107.685907 70.756796 
L 1117.986906 76.452513 
L 1128.287906 82.050961 
L 1128.287906 82.050961 
" style="fill:none;stroke:#e7298a;stroke-linecap:round;stroke-width:4;"/>
   </g>
   <g id="patch_8">
    <path d="M 621.015179 170.28 
L 621.015179 7.2 
" style="fill:none;stroke:#cccccc;stroke-linecap:square;stroke-linejoin:miter;stroke-width:0.8;"/>
   </g>
   <g id="patch_9">
    <path d="M 1152.44375 170.28 
L 1152.44375 7.2 
" style="fill:none;stroke:#cccccc;stroke-linecap:square;stroke-linejoin:miter;stroke-width:0.8;"/>
   </g>
   <g id="patch_10">
    <path d="M 621.015179 170.28 
L 1152.44375 170.28 
" style="fill:none;stroke:#cccccc;stroke-linecap:square;stroke-linejoin:miter;stroke-width:0.8;"/>
   </g>
   <g id="patch_11">
    <path d="M 621.015179 7.2 
L 1152.44375 7.2 
" style="fill:none;stroke:#cccccc;stroke-linecap:square;stroke-linejoin:miter;stroke-width:0.8;"/>
   </g>
  </g>
 </g>
 <defs>
  <clipPath id="p9466929b56">
   <rect height="163.08" width="531.428571" x="36.44375" y="7.2"/>
  </clipPath>
  <clipPath id="pb5c70f62aa">
   <rect height="163.08" width="531.428571" x="621.015179" y="7.2"/>
  </clipPath>
 </defs>
</svg>
